<?xml version="1.0" encoding="UTF-8"?>
<svg id="Capa_2" data-name="Capa 2" xmlns="http://www.w3.org/2000/svg" viewBox="0 0 25 25">
  <defs>
    <style>
      .cls-1 {
        fill: #fff;
      }

      .cls-2 {
        fill: none;
        stroke: #fff;
        stroke-miterlimit: 10;
        stroke-width: 1.21px;
      }
    </style>
  </defs>
  <g id="Home3">
    <g>
      <path class="cls-1" d="m12.5,25C5.61,25,0,19.39,0,12.5S5.61,0,12.5,0s12.5,5.61,12.5,12.5-5.61,12.5-12.5,12.5ZM12.5.98C6.15.98.98,6.15.98,12.5s5.17,11.52,11.52,11.52,11.52-5.17,11.52-11.52S18.85.98,12.5.98Z"/>
      <path class="cls-2" d="m5.36,17.83c-.2-1.31-.42-2.67-.68-4.06-.27-1.45-.55-2.85-.86-4.2,1.1.23,2.75.41,4.57-.08,2.81-.76,3.71-2.49,6.42-3.1,1.04-.23,2.6-.36,4.68.27.05,1,.16,2.07.33,3.22.29,1.91.73,3.59,1.2,5.04-2.59-.33-4.41.12-5.59.6-2.44.98-3.2,2.46-5.47,2.93-1.84.39-3.52-.14-4.62-.62Z"/>
    </g>
  </g>
</svg>