<?xml version="1.0" encoding="UTF-8"?>
<svg id="Capa_2" data-name="Capa 2" xmlns="http://www.w3.org/2000/svg" viewBox="0 0 25 25">
  <defs>
    <style>
      .cls-1 {
        fill: #fff;
      }
    </style>
  </defs>
  <g id="Home2">
    <g>
      <path class="cls-1" d="m12.5,25C5.61,25,0,19.39,0,12.5S5.61,0,12.5,0s12.5,5.61,12.5,12.5-5.61,12.5-12.5,12.5ZM12.5.98C6.15.98.98,6.15.98,12.5s5.17,11.52,11.52,11.52,11.52-5.17,11.52-11.52S18.85.98,12.5.98Z"/>
      <polygon class="cls-1" points="15.95 17.62 5.63 17.62 3.44 9.99 4.38 9.72 6.37 16.64 15.21 16.64 17.26 9.58 20.09 7.03 21.55 7.07 21.52 8.05 20.46 8.02 18.13 10.13 15.95 17.62"/>
      <path class="cls-1" d="m14.46,21.81c-1,0-1.81-.81-1.81-1.81s.81-1.81,1.81-1.81,1.81.81,1.81,1.81-.81,1.81-1.81,1.81Zm0-2.64c-.46,0-.83.37-.83.83s.37.83.83.83.83-.37.83-.83-.37-.83-.83-.83Z"/>
      <path class="cls-1" d="m7.58,21.81c-1,0-1.81-.81-1.81-1.81s.81-1.81,1.81-1.81,1.81.81,1.81,1.81-.81,1.81-1.81,1.81Zm0-2.64c-.46,0-.83.37-.83.83s.37.83.83.83.83-.37.83-.83-.37-.83-.83-.83Z"/>
    </g>
  </g>
</svg>