<?xml version="1.0" encoding="UTF-8"?>
<svg id="Capa_2" data-name="Capa 2" xmlns="http://www.w3.org/2000/svg" xmlns:xlink="http://www.w3.org/1999/xlink" viewBox="0 0 30 30">
  <defs>
    <style>
      .cls-1 {
        fill: #fff;
      }

      .cls-2 {
        fill: url(#linear-gradient);
      }
    </style>
    <linearGradient id="linear-gradient" x1="317.89" y1="-774.17" x2="343.28" y2="-748.78" gradientTransform="translate(-746.48 -315.58) rotate(90)" gradientUnits="userSpaceOnUse">
      <stop offset="0" stop-color="#4676ed"/>
      <stop offset=".19" stop-color="#436de4"/>
      <stop offset=".49" stop-color="#3b54cd"/>
      <stop offset=".87" stop-color="#2f2da8"/>
      <stop offset="1" stop-color="#2b1e99"/>
    </linearGradient>
  </defs>
  <g id="home1">
    <g>
      <path class="cls-2" d="m0,22.15V7.85C0,3.53,3.53,0,7.85,0h14.31c4.32,0,7.85,3.53,7.85,7.85v14.31c0,4.32-3.53,7.85-7.85,7.85h-4.81l-2.52-.61-2.17.61h-4.81c-4.32,0-7.85-3.53-7.85-7.85Z"/>
      <path class="cls-1" d="m20.84,19.83l.66-4.34h-4.16v-2.81c0-1.19.58-2.34,2.44-2.34h1.89v-3.69s-1.72-.29-3.36-.29c-3.43,0-5.67,2.08-5.67,5.84v3.3h-3.81v4.34h3.81v10.17h4.69v-10.17h3.5Z"/>
    </g>
  </g>
</svg>
