<?xml version="1.0" encoding="UTF-8"?>
<svg id="Capa_2" data-name="Capa 2" xmlns="http://www.w3.org/2000/svg" viewBox="0 0 1000 1000">
  <defs>
    <style>
      .cls-1 {
        fill: #fff;
      }

      .cls-2 {
        fill: #5b45aa;
      }
    </style>
  </defs>
  <g id="Capa_1-2" data-name="Capa 1">
    <path class="cls-2" d="m500.21,0C224.07-.12.12,223.65,0,499.79c-.12,276.14,223.65,500.09,499.79,500.21,276.14.12,500.09-223.65,500.21-499.79v-.21C999.2,224.27,775.94.92,500.21,0Z"/>
    <path class="cls-1" d="m500.21,937.11c-241.52.12-437.41-195.58-437.53-437.11-.12-241.52,195.58-437.41,437.11-437.53,241.52-.12,437.41,195.58,437.53,437.11v.42c-.92,241.03-196.08,436.19-437.11,437.11Zm0-790.85c-195.37-.12-353.83,158.17-353.95,353.53-.12,195.37,158.17,353.83,353.53,353.95,195.37.12,353.83-158.17,353.95-353.53v-.21c-.12-195.24-158.3-353.51-353.53-353.74Z"/>
    <path class="cls-1" d="m356.69,242.87c41.3-7.63,83.23-11.33,125.22-11.05,68.46,0,112.64,11.82,145.65,38.53,29.18,22.02,45.7,56.97,44.18,93.5,0,51.37-33.91,96.07-89.9,116.49v1.54c50.35,12.84,109.43,54.46,109.43,133.19.63,40.15-15.69,78.71-44.95,106.22-36.99,33.91-96.84,49.7-183.41,49.7-35.55.27-71.08-1.88-106.34-6.42l.13-521.71Zm68.58,217.31h62.16c72.44,0,115.59-37.76,115.59-89.01,0-62.16-47.26-86.57-116.49-86.57-20.31-.53-40.62,1.02-60.62,4.62l-.64,170.95Zm0,254.3c19.02,2.62,38.22,3.7,57.41,3.21,70.9,0,136.27-25.69,136.27-102.75,0-72.44-62.29-102.75-137.04-102.75h-56.64v202.29Z"/>
  </g>
</svg>