<?xml version="1.0" encoding="UTF-8"?>
<svg id="Capa_2" data-name="Capa 2" xmlns="http://www.w3.org/2000/svg" xmlns:xlink="http://www.w3.org/1999/xlink" viewBox="0 0 30 30">
  <defs>
    <style>
      .cls-1 {
        fill: #fff;
      }

      .cls-2 {
        fill: url(#Degradado_sin_nombre_5);
      }
    </style>
    <linearGradient id="Degradado_sin_nombre_5" data-name="Degradado sin nombre 5" x1="430.24" y1="-679.42" x2="469.04" y2="-640.62" gradientTransform="translate(-430.55 679.1)" gradientUnits="userSpaceOnUse">
      <stop offset="0" stop-color="#fbe18a"/>
      <stop offset=".21" stop-color="#fcbb45"/>
      <stop offset=".38" stop-color="#f75274"/>
      <stop offset=".52" stop-color="#d53692"/>
      <stop offset=".74" stop-color="#8f39ce"/>
      <stop offset="1" stop-color="#5b4fe9"/>
    </linearGradient>
  </defs>
  <g id="home1">
    <g>
      <rect class="cls-2" x="0" y="0" width="30" height="30" rx="7.85" ry="7.85" transform="translate(30 0) rotate(90)"/>
      <g>
        <path class="cls-1" d="m19.66,9.35c-.57,0-1.03.46-1.03,1.03s.46,1.03,1.03,1.03,1.03-.46,1.03-1.03-.46-1.03-1.03-1.03Z"/>
        <path class="cls-1" d="m15.07,10.67c-2.39,0-4.33,1.94-4.33,4.33s1.94,4.33,4.33,4.33,4.33-1.94,4.33-4.33-1.94-4.33-4.33-4.33Zm0,7.11c-1.53,0-2.77-1.24-2.77-2.77s1.24-2.77,2.77-2.77,2.77,1.24,2.77,2.77-1.24,2.77-2.77,2.77Z"/>
        <path class="cls-1" d="m18.51,23.79h-7.02c-2.91,0-5.28-2.37-5.28-5.28v-7.02c0-2.91,2.37-5.28,5.28-5.28h7.02c2.91,0,5.28,2.37,5.28,5.28v7.02c0,2.91-2.37,5.28-5.28,5.28Zm-7.02-15.93c-2,0-3.63,1.63-3.63,3.63v7.02c0,2,1.63,3.63,3.63,3.63h7.02c2,0,3.63-1.63,3.63-3.63v-7.02c0-2-1.63-3.63-3.63-3.63h-7.02Z"/>
      </g>
    </g>
  </g>
</svg>