<?xml version="1.0" encoding="UTF-8"?>
<svg id="Capa_2" data-name="Capa 2" xmlns="http://www.w3.org/2000/svg" viewBox="0 0 20.11 13.37">
  <defs>
    <style>
      .cls-1 {
        fill: #f6b81e;
      }
    </style>
  </defs>
  <g id="Home2">
    <g>
      <path class="cls-1" d="m14.56,13.37c-3.06,0-5.54-2.49-5.54-5.54,0-1.69.93-3.02,1.21-3.38.79-1.01,1.74-1.55,2.46-1.83v-.72s0,0-.01,0c-.07,0-.12,0-.15,0-.09,0-.17.01-.27-.03-.33-.15-.38-.69-.27-1.01C12.29.02,13.82,0,14.56,0c.83,0,2.09-.02,2.45.74.15.33.16.93-.17,1.12-.11.06-.21.05-.32.04-.03,0-.08,0-.13-.01-.03,0-.05,0-.08,0l.14.83c.73.31,1.7.89,2.5,1.95.96,1.29,1.16,2.43,1.16,3.16,0,3.06-2.49,5.54-5.54,5.54Zm-1.74-12.03c.06,0,.12,0,.16,0h.27s-.01,1.65-.01,1.65l-.18.06c-.66.24-1.62.73-2.39,1.72-.26.33-1.1,1.53-1.1,3.05,0,2.76,2.24,5,5,5s5-2.24,5-5c0-.64-.18-1.66-1.05-2.82-.77-1.04-1.74-1.57-2.41-1.84l-.14-.06-.29-1.75.3-.02c.15,0,.3,0,.45,0,.06,0,.1,0,.14.01.02-.09.02-.26-.04-.38-.21-.45-1.34-.43-1.95-.43-1.26.01-1.95.18-2.06.49-.04.1-.02.24,0,.32.04,0,.09,0,.16,0,.06,0,.11,0,.16,0Z"/>
      <path class="cls-1" d="m14.56,11.97c-2.22,0-4.02-1.8-4.02-4.02s1.8-4.02,4.02-4.02,4.02,1.8,4.02,4.02-1.8,4.02-4.02,4.02Zm0-7.5c-1.92,0-3.47,1.56-3.47,3.47s1.56,3.47,3.47,3.47,3.47-1.56,3.47-3.47-1.56-3.47-3.47-3.47Z"/>
      <path class="cls-1" d="m14.56,8.37c-.15,0-.27-.12-.27-.27v-2.81c0-.15.12-.27.27-.27s.27.12.27.27v2.81c0,.15-.12.27-.27.27Z"/>
      <path class="cls-1" d="m16.03,10.01c-.08,0-.15-.03-.2-.09l-1.46-1.64c-.1-.11-.09-.29.02-.39.11-.1.29-.09.39.02l1.46,1.64c.1.11.09.29-.02.39-.05.05-.12.07-.18.07Z"/>
      <path class="cls-1" d="m8.53,4.88H2.06c-.15,0-.27-.12-.27-.27s.12-.27.27-.27h6.47c.15,0,.27.12.27.27s-.12.27-.27.27Z"/>
      <path class="cls-1" d="m6.01,7.31H.27c-.15,0-.27-.12-.27-.27s.12-.27.27-.27h5.74c.15,0,.27.12.27.27s-.12.27-.27.27Z"/>
      <path class="cls-1" d="m7.83,10.15H2.82c-.15,0-.27-.12-.27-.27s.12-.27.27-.27h5.01c.15,0,.27.12.27.27s-.12.27-.27.27Z"/>
    </g>
  </g>
</svg>