<?xml version="1.0" encoding="UTF-8"?>
<svg id="Capa_2" data-name="Capa 2" xmlns="http://www.w3.org/2000/svg" viewBox="0 0 25 25">
  <defs>
    <style>
      .cls-1 {
        fill: #fff;
      }
    </style>
  </defs>
  <g id="Home3_copia" data-name="Home3 copia">
    <g>
      <path class="cls-1" d="m12.5,25C5.61,25,0,19.39,0,12.5S5.61,0,12.5,0s12.5,5.61,12.5,12.5-5.61,12.5-12.5,12.5ZM12.5.98C6.15.98.98,6.15.98,12.5s5.17,11.52,11.52,11.52,11.52-5.17,11.52-11.52S18.85.98,12.5.98Z"/>
      <path class="cls-1" d="m18.93,6.15H5.45c-.88,0-1.59.71-1.59,1.59v8.1c0,.88.71,1.59,1.59,1.59h13.48c.88,0,1.59-.71,1.59-1.59V7.74c0-.88-.71-1.59-1.59-1.59Zm-13.48,1.08h13.48c.29,0,.52.23.52.52v1.56H4.93v-1.56c0-.29.23-.52.52-.52Zm13.48,9.14H5.45c-.29,0-.52-.23-.52-.52v-4.71h14.52v4.71c0,.29-.23.52-.52.52Z"/>
    </g>
  </g>
</svg>