<?xml version="1.0" encoding="UTF-8"?>
<svg id="Capa_2" data-name="Capa 2" xmlns="http://www.w3.org/2000/svg" xmlns:xlink="http://www.w3.org/1999/xlink" viewBox="0 0 13.03 13.03">
  <defs>
    <style>
      .cls-1 {
        fill: #249fdd;
      }

      .cls-2 {
        filter: url(#drop-shadow-1);
      }

      .cls-3 {
        fill: #fefefe;
      }
    </style>
    <filter id="drop-shadow-1" filterUnits="userSpaceOnUse">
      <feOffset dx="0" dy="1"/>
      <feGaussianBlur result="blur" stdDeviation="1"/>
      <feFlood flood-color="#000" flood-opacity=".25"/>
      <feComposite in2="blur" operator="in"/>
      <feComposite in="SourceGraphic"/>
    </filter>
  </defs>
  <g id="Home2">
    <g class="cls-2">
      <path class="cls-1" d="m0,6.72v-.4s0-.09,0-.13c0-.53.09-1.04.24-1.54.11-.37.25-.73.42-1.07.24-.47.52-.9.87-1.3.14-.17.29-.33.44-.47.41-.39.85-.72,1.34-1,.39-.22.8-.4,1.23-.53.38-.12.77-.21,1.16-.25.16-.02.32-.02.48-.02.04,0,.09,0,.13,0h.4s.08,0,.12,0c.53,0,1.05.09,1.56.24.42.13.82.29,1.21.5.37.2.71.43,1.04.69.25.2.47.42.69.65.35.38.65.79.9,1.24.19.35.36.71.49,1.09.14.41.24.82.29,1.25.02.14.02.28.02.42,0,.02,0,.04,0,.06v.75c-.01.06,0,.13,0,.19,0,.29-.05.57-.11.85-.08.36-.19.71-.33,1.06-.15.37-.33.72-.55,1.05-.19.3-.41.58-.65.85-.25.28-.53.54-.83.78-.38.3-.79.56-1.23.76-.34.16-.7.3-1.07.4-.29.08-.58.14-.88.17-.14.02-.29.02-.43.02-.02,0-.04,0-.06,0h-.74c-.06-.01-.12,0-.18,0-.37,0-.72-.07-1.07-.16-.4-.1-.78-.24-1.15-.41-.4-.19-.78-.41-1.13-.68-.33-.24-.63-.52-.91-.82-.36-.39-.67-.83-.93-1.3-.3-.55-.52-1.13-.65-1.74-.04-.19-.08-.39-.1-.58-.01-.16-.02-.32-.02-.49,0-.04,0-.08,0-.12Z"/>
      <path class="cls-3" d="m9.54,4.35c-.01.17-.03.35-.06.52-.06.51-.14,1.02-.22,1.53-.08.51-.17,1.02-.25,1.54-.07.41-.15.82-.22,1.23-.02.12-.06.24-.12.35-.11.22-.27.29-.51.24-.16-.03-.31-.12-.44-.21-.62-.42-1.25-.85-1.87-1.27-.07-.05-.14-.1-.2-.17-.13-.14-.14-.28-.03-.44.05-.07.1-.12.16-.18.37-.37.76-.72,1.14-1.08.27-.25.53-.5.79-.77.03-.03.06-.07.08-.1.03-.04.03-.08,0-.13-.02-.04-.06-.05-.11-.04-.05,0-.09.03-.12.05-.48.3-.95.62-1.42.94-.43.29-.87.58-1.3.87-.17.11-.35.2-.56.22-.14.01-.28-.02-.42-.05-.38-.09-.76-.21-1.13-.34-.07-.02-.13-.06-.18-.1-.1-.08-.1-.2-.02-.29.07-.08.16-.13.25-.17.32-.14.64-.28.96-.42,1.04-.45,2.08-.91,3.13-1.35.57-.24,1.15-.48,1.74-.7.16-.06.32-.12.49-.14.07-.01.14,0,.21,0,.15.04.22.12.23.29,0,.04,0,.08,0,.13Z"/>
    </g>
  </g>
</svg>