<?xml version="1.0" encoding="UTF-8"?>
<svg id="Capa_2" data-name="Capa 2" xmlns="http://www.w3.org/2000/svg" xmlns:xlink="http://www.w3.org/1999/xlink" viewBox="0 0 30 30">
  <defs>
    <style>
      .cls-1 {
        fill: #fff;
      }

      .cls-1, .cls-2, .cls-3 {
        fill-rule: evenodd;
      }

      .cls-2 {
        fill: #69c9d0;
      }

      .cls-3 {
        fill: #ee1d52;
      }

      .cls-4 {
        fill: url(#linear-gradient);
      }
    </style>
    <linearGradient id="linear-gradient" x1="523.57" y1="-493.3" x2="548.96" y2="-518.69" gradientTransform="translate(-521.26 521)" gradientUnits="userSpaceOnUse">
      <stop offset="0" stop-color="#22004a"/>
      <stop offset=".96" stop-color="#010003"/>
      <stop offset="1" stop-color="#000"/>
    </linearGradient>
  </defs>
  <g id="home1">
    <g>
      <rect class="cls-4" x="0" y="0" width="30" height="30" rx="7.85" ry="7.85" transform="translate(30 0) rotate(90)"/>
      <g>
        <path class="cls-3" d="m19.06,12.25c1.23.88,2.73,1.39,4.36,1.39v-3.12c-.31,0-.61-.03-.91-.1v2.46c-1.62,0-3.13-.52-4.36-1.39v6.37c0,3.19-2.59,5.77-5.78,5.77-1.19,0-2.3-.36-3.22-.98,1.05,1.07,2.51,1.74,4.13,1.74,3.19,0,5.78-2.58,5.78-5.77v-6.37h0Zm1.13-3.15c-.63-.68-1.04-1.57-1.13-2.55v-.4h-.87c.22,1.24.96,2.31,2,2.95h0Zm-9.02,11.12c-.35-.46-.54-1.02-.54-1.6,0-1.46,1.18-2.64,2.64-2.64.27,0,.54.04.8.12v-3.19c-.3-.04-.61-.06-.91-.05v2.49c-.26-.08-.53-.12-.8-.12-1.46,0-2.64,1.18-2.64,2.64,0,1.03.59,1.92,1.45,2.36Z"/>
        <path class="cls-1" d="m18.14,11.49c1.23.88,2.73,1.39,4.36,1.39v-2.46c-.91-.19-1.71-.67-2.31-1.33-1.03-.64-1.78-1.71-2-2.95h-2.28v12.48c0,1.45-1.19,2.63-2.64,2.63-.86,0-1.62-.41-2.1-1.04-.86-.43-1.45-1.33-1.45-2.36,0-1.46,1.18-2.64,2.64-2.64.28,0,.55.04.8.12v-2.49c-3.13.06-5.66,2.62-5.66,5.77,0,1.57.63,3,1.65,4.04.92.62,2.03.98,3.22.98,3.19,0,5.78-2.58,5.78-5.77v-6.37Z"/>
        <path class="cls-2" d="m22.5,10.42v-.66c-.82,0-1.62-.23-2.31-.66.61.67,1.42,1.14,2.31,1.33Zm-4.31-4.28c-.02-.12-.04-.24-.05-.36v-.4h-3.14v12.48c0,1.45-1.19,2.63-2.64,2.63-.43,0-.83-.1-1.19-.28.48.63,1.25,1.04,2.1,1.04,1.46,0,2.64-1.18,2.64-2.63V6.15h2.28Zm-5.03,6.7v-.71c-.26-.04-.53-.05-.79-.05-3.19,0-5.78,2.58-5.78,5.77,0,2,1.02,3.76,2.56,4.8-1.02-1.04-1.65-2.47-1.65-4.04,0-3.15,2.52-5.71,5.65-5.77h0Z"/>
      </g>
    </g>
  </g>
</svg>