<?xml version="1.0" encoding="UTF-8"?>
<svg id="Capa_2" data-name="Capa 2" xmlns="http://www.w3.org/2000/svg" xmlns:xlink="http://www.w3.org/1999/xlink" viewBox="0 0 30 30">
  <defs>
    <style>
      .cls-1 {
        fill: #fff;
      }

      .cls-2 {
        fill: url(#Degradado_sin_nombre_6);
      }
    </style>
    <linearGradient id="Degradado_sin_nombre_6" data-name="Degradado sin nombre 6" x1="420.11" y1="-707.14" x2="445.5" y2="-681.75" gradientTransform="translate(-417.81 709.45)" gradientUnits="userSpaceOnUse">
      <stop offset="0" stop-color="#3cf"/>
      <stop offset="1" stop-color="#337fff"/>
    </linearGradient>
  </defs>
  <g id="home1">
    <g>
      <rect class="cls-2" x="0" y="0" width="30" height="30" rx="7.85" ry="7.85" transform="translate(30 0) rotate(90)"/>
      <path class="cls-1" d="m23.29,9.86c-.52.23-1.09.38-1.65.47.27-.04.66-.53.81-.72.24-.3.44-.64.55-1,.01-.03.02-.06,0-.09-.04-.01-.06,0-.09,0-.63.34-1.27.58-1.96.75-.06.01-.1,0-.14-.04-.06-.06-.11-.13-.17-.18-.29-.25-.6-.44-.95-.58-.46-.19-.96-.27-1.46-.23-.48.03-.96.17-1.38.39-.43.22-.81.54-1.12.91-.31.39-.55.85-.67,1.33-.11.47-.11.93-.04,1.41.01.08,0,.09-.07.08-2.69-.4-4.93-1.36-6.74-3.43-.08-.09-.12-.09-.19,0-.79,1.19-.41,3.1.58,4.04.13.13.27.25.41.36-.05.01-.71-.06-1.3-.36-.08-.05-.12-.02-.13.07,0,.13,0,.25.02.39.15,1.21.99,2.32,2.13,2.76.14.06.29.11.43.13-.26.06-.53.1-1.28.04-.09-.02-.13.03-.09.12.56,1.53,1.77,1.99,2.68,2.24.12.02.24.02.36.05,0,.01-.01.01-.02.02-.3.46-1.34.8-1.83.97-.88.31-1.85.45-2.78.36-.15-.02-.18-.02-.22,0-.04.03,0,.06.04.1.19.13.38.24.58.34.59.31,1.21.56,1.86.74,3.34.92,7.1.24,9.61-2.25,1.97-1.96,2.66-4.65,2.66-7.36,0-.11.12-.16.2-.22.51-.38.93-.85,1.31-1.36.09-.12.09-.22.09-.26h0c0-.06,0-.04-.07-.01Z"/>
    </g>
  </g>
</svg>