<?xml version="1.0" encoding="UTF-8"?>
<svg id="Capa_2" data-name="Capa 2" xmlns="http://www.w3.org/2000/svg" xmlns:xlink="http://www.w3.org/1999/xlink" viewBox="0 0 13.03 13.05">
  <defs>
    <style>
      .cls-1 {
        fill: #fcfefd;
      }

      .cls-2 {
        filter: url(#drop-shadow-1);
      }

      .cls-3 {
        fill: #1cd641;
      }
    </style>
    <filter id="drop-shadow-1" filterUnits="userSpaceOnUse">
      <feOffset dx="0" dy="1"/>
      <feGaussianBlur result="blur" stdDeviation="1"/>
      <feFlood flood-color="#000" flood-opacity=".25"/>
      <feComposite in2="blur" operator="in"/>
      <feComposite in="SourceGraphic"/>
    </filter>
  </defs>
  <g id="Home2">
    <g class="cls-2">
      <path class="cls-1" d="m0,13.05c.22-.77.43-1.52.64-2.26.08-.29.16-.57.24-.86.03-.09.02-.16-.03-.24C.31,8.72.02,7.68.02,6.57c0-1.38.38-2.65,1.18-3.79.81-1.15,1.89-1.97,3.23-2.43C5.46,0,6.52-.1,7.6.1c2.31.43,3.95,1.73,4.91,3.87.51,1.15.65,2.37.43,3.61-.37,2.06-1.47,3.63-3.29,4.63-1.98,1.08-4.02,1.09-6.05.1-.17-.08-.32-.11-.51-.06-1.01.27-2.03.53-3.07.8Zm11.93-6.39c-.02-.79-.12-1.42-.35-2.03-.92-2.48-3.57-3.96-6.16-3.41C3.17,1.69,1.45,3.55,1.17,5.84c-.16,1.32.13,2.54.85,3.65.07.1.08.19.04.3-.15.51-.28,1.03-.44,1.54-.05.16,0,.16.13.12.52-.14,1.04-.27,1.56-.41.13-.03.23-.03.35.05,1.39.84,2.88,1.04,4.44.57,2.25-.67,3.81-2.8,3.82-5.01Z"/>
      <path class="cls-3" d="m11.93,6.65c0,2.21-1.57,4.34-3.82,5.01-1.56.47-3.04.27-4.44-.57-.12-.07-.22-.08-.35-.05-.52.14-1.04.27-1.56.41-.13.03-.18.04-.13-.12.15-.51.29-1.02.44-1.54.03-.11.02-.2-.04-.3-.72-1.11-1.02-2.33-.85-3.65C1.45,3.55,3.17,1.69,5.42,1.22c2.59-.55,5.25.92,6.16,3.41.22.61.33,1.24.35,2.03Zm-7.49-3.18c-.22-.02-.4,0-.55.13-.57.51-.76,1.13-.59,1.87.14.62.47,1.15.86,1.64.91,1.15,2.03,1.99,3.45,2.41.94.28,2.03-.09,2.21-1.26.03-.18,0-.3-.18-.38-.43-.19-.86-.39-1.28-.59-.16-.07-.27-.05-.38.1-.15.21-.32.41-.48.62-.06.08-.14.13-.25.09-1-.38-1.78-1.02-2.31-1.95-.06-.11-.05-.2.03-.3.14-.16.27-.32.42-.48.12-.13.14-.26.07-.41-.16-.36-.33-.72-.46-1.08-.1-.29-.26-.46-.56-.4Z"/>
      <path class="cls-1" d="m4.44,3.47c.3-.07.45.11.56.4.13.37.3.73.46,1.08.07.16.05.29-.07.41-.14.15-.28.32-.42.48-.08.09-.1.19-.03.3.53.93,1.31,1.57,2.31,1.95.11.04.19,0,.25-.09.16-.21.32-.41.48-.62.1-.14.22-.17.38-.1.43.2.85.4,1.28.59.18.08.21.2.18.38-.18,1.17-1.27,1.54-2.21,1.26-1.42-.43-2.55-1.26-3.45-2.41-.39-.49-.72-1.02-.86-1.64-.17-.74.02-1.36.59-1.87.16-.14.33-.16.55-.13Z"/>
    </g>
  </g>
</svg>