<?xml version="1.0" encoding="UTF-8"?>
<svg id="Capa_2" data-name="Capa 2" xmlns="http://www.w3.org/2000/svg" xmlns:xlink="http://www.w3.org/1999/xlink" viewBox="0 0 50 50.54">
  <defs>
    <style>
      .cls-1 {
        fill: #fff;
        fill-rule: evenodd;
      }

      .cls-2 {
        fill: url(#Degradado_sin_nombre_3);
      }

      .cls-3 {
        fill: url(#Degradado_sin_nombre_4);
      }
    </style>
    <linearGradient id="Degradado_sin_nombre_4" data-name="Degradado sin nombre 4" x1="-17.89" y1="394.72" x2="-17.89" y2="338.08" gradientTransform="translate(40.24 -288.31) scale(.85)" gradientUnits="userSpaceOnUse">
      <stop offset="0" stop-color="#20b038"/>
      <stop offset="1" stop-color="#60d66a"/>
    </linearGradient>
    <linearGradient id="Degradado_sin_nombre_3" data-name="Degradado sin nombre 3" x1="-8.23" y1="386.42" x2="-8.23" y2="327.76" gradientTransform="translate(32.02 -280.34) scale(.85)" gradientUnits="userSpaceOnUse">
      <stop offset="0" stop-color="#f9f9f9"/>
      <stop offset="1" stop-color="#fff"/>
    </linearGradient>
  </defs>
  <g id="Home3_copia" data-name="Home3 copia">
    <g>
      <g>
        <path id="e" d="m.21,25.13c0,4.4,1.14,8.69,3.32,12.48l-3.53,12.93,13.2-3.47c3.64,1.99,7.73,3.04,11.9,3.04h.01c13.72,0,24.89-11.2,24.9-24.95,0-6.67-2.58-12.94-7.28-17.65C38.01,2.78,31.76.18,25.1.18,11.38.18.21,11.37.21,25.13Z"/>
        <path id="e-2" data-name="e" d="m.21,25.13c0,4.4,1.14,8.69,3.32,12.48l-3.53,12.93,13.2-3.47c3.64,1.99,7.73,3.04,11.9,3.04h.01c13.72,0,24.89-11.2,24.9-24.95,0-6.67-2.58-12.94-7.28-17.65C38.01,2.78,31.76.18,25.1.18,11.38.18.21,11.37.21,25.13Z"/>
      </g>
      <path class="cls-3" d="m1.1,24.87c0,4.23,1.1,8.36,3.21,12l-3.41,12.44,12.73-3.34c3.51,1.91,7.46,2.92,11.47,2.92h.01c13.23,0,24.01-10.77,24.01-24,0-6.41-2.49-12.44-7.03-16.98C37.57,3.37,31.54.87,25.11.87,11.88.87,1.11,11.64,1.1,24.87"/>
      <path class="cls-2" d="m.25,24.86c0,4.38,1.14,8.66,3.32,12.43L.04,50.18l13.19-3.46c3.63,1.98,7.72,3.03,11.89,3.03h.01c13.71,0,24.87-11.16,24.87-24.87,0-6.64-2.58-12.89-7.28-17.59C38.02,2.59,31.77,0,25.12,0,11.41,0,.25,11.15.24,24.86h0Zm7.85,11.78l-.49-.78c-2.07-3.29-3.16-7.09-3.16-11,0-11.4,9.28-20.67,20.68-20.67,5.52,0,10.71,2.15,14.62,6.06,3.9,3.91,6.05,9.1,6.05,14.62,0,11.4-9.28,20.67-20.67,20.67h0c-3.71,0-7.35-1-10.52-2.88l-.76-.45-7.82,2.05,2.09-7.63Z"/>
      <path class="cls-1" d="m18.9,14.47c-.47-1.03-.96-1.06-1.4-1.07-.36-.02-.78-.01-1.19-.01s-1.09.16-1.66.78c-.57.62-2.18,2.13-2.18,5.18s2.23,6.01,2.54,6.43c.31.41,4.3,6.89,10.62,9.38,5.25,2.07,6.32,1.66,7.46,1.55,1.14-.1,3.68-1.5,4.19-2.95.52-1.45.52-2.69.36-2.95-.16-.26-.57-.41-1.19-.73-.62-.31-3.68-1.81-4.25-2.02-.57-.21-.98-.31-1.4.31-.41.62-1.6,2.02-1.97,2.44-.36.42-.73.47-1.35.16-.62-.31-2.62-.97-5-3.08-1.85-1.65-3.09-3.68-3.46-4.3-.36-.62-.04-.96.27-1.27.28-.28.62-.73.93-1.09.31-.36.41-.62.62-1.04.21-.42.1-.78-.05-1.09-.16-.31-1.36-3.38-1.92-4.61"/>
    </g>
  </g>
</svg>